<?xml version="1.0" encoding="utf-8"?>
<!-- Generator: Adobe Illustrator 16.0.0, SVG Export Plug-In . SVG Version: 6.00 Build 0)  -->
<!DOCTYPE svg PUBLIC "-//W3C//DTD SVG 1.1//EN" "http://www.w3.org/Graphics/SVG/1.1/DTD/svg11.dtd">
<svg version="1.1" id="Layer_1" xmlns="http://www.w3.org/2000/svg" xmlns:xlink="http://www.w3.org/1999/xlink" x="0px" y="0px"
	 width="200px" height="200px" viewBox="0 0 200 200" enable-background="new 0 0 200 200" xml:space="preserve">
<g>
	<circle fill="#DDDDDD" cx="100.596" cy="100" r="84.447"/>
	<g>
		<circle fill="#9B9B9B" cx="63.301" cy="56.309" r="5.217"/>
		<path fill="#9B9B9B" d="M143.195,27.094c-1.007,0.952-1.642,2.29-1.642,3.783c0,2.881,2.335,5.217,5.217,5.217
			c2.226,0,4.112-1.4,4.861-3.363C148.943,30.688,146.123,28.81,143.195,27.094z"/>
		<path fill="#9B9B9B" d="M31.508,144.621c-0.819,0-1.594,0.168-2.316,0.442c2.237,3.538,4.729,6.896,7.453,10.053
			c0.855-1.103,1.384-2.471,1.384-3.975C38.029,147.54,35.11,144.621,31.508,144.621z"/>
		<circle fill="#9B9B9B" cx="141.554" cy="144.621" r="5.217"/>
		<path fill="#9B9B9B" d="M90.882,112.161c0,2.213-1.795,4.007-4.009,4.007c-2.214,0-4.009-1.794-4.009-4.007
			c0-2.216,1.794-4.01,4.009-4.01C89.086,108.151,90.882,109.945,90.882,112.161z"/>
		<circle fill="#9B9B9B" cx="100.596" cy="162.602" r="2.675"/>
		<circle fill="#9B9B9B" cx="109.927" cy="78.807" r="2.935"/>
		<path fill="#9B9B9B" d="M170.572,104.238c0,5.043,4.087,9.13,9.129,9.13c1.617,0,3.135-0.426,4.451-1.163
			c0.578-3.986,0.891-8.059,0.891-12.205c0-1.078-0.041-2.146-0.082-3.215c-1.487-1.051-3.298-1.675-5.26-1.675
			C174.659,95.109,170.572,99.196,170.572,104.238z"/>
	</g>
</g>
</svg>
