<?xml version="1.0" encoding="utf-8"?>
<!-- Generator: Adobe Illustrator 16.0.0, SVG Export Plug-In . SVG Version: 6.00 Build 0)  -->
<!DOCTYPE svg PUBLIC "-//W3C//DTD SVG 1.1//EN" "http://www.w3.org/Graphics/SVG/1.1/DTD/svg11.dtd">
<svg version="1.1" id="Layer_1" xmlns="http://www.w3.org/2000/svg" xmlns:xlink="http://www.w3.org/1999/xlink" x="0px" y="0px"
	 width="1152px" height="548px" viewBox="0 0 1152 548" enable-background="new 0 0 1152 548" xml:space="preserve">
<g>
	<g>
		<circle fill="#FFFFFF" cx="442.398" cy="62.325" r="2.667"/>
	</g>
	<g>
		<circle fill="#FFFFFF" cx="319.705" cy="272.771" r="2.667"/>
	</g>
	<g>
		<circle fill="#FFFFFF" cx="313.943" cy="44.304" r="2.667"/>
	</g>
	<g>
		<circle fill="#FFFFFF" cx="204.698" cy="4.75" r="2.667"/>
	</g>
	<g>
		<circle fill="#FFFFFF" cx="149.71" cy="37.162" r="2.667"/>
	</g>
	<g>
		<circle fill="#FFFFFF" cx="520.853" cy="2.173" r="2.667"/>
	</g>
	<g>
		<circle fill="#FFFFFF" cx="301.275" cy="434.456" r="2.667"/>
	</g>
	<g>
		<circle fill="#FFFFFF" cx="468.327" cy="171.637" r="2.667"/>
	</g>
	<g>
		<circle fill="#FFFFFF" cx="386.927" cy="269.806" r="2.667"/>
	</g>
	<g>
		<circle fill="#FFFFFF" cx="276.779" cy="487.873" r="2.667"/>
	</g>
	<g>
		<circle fill="#FFFFFF" cx="588.605" cy="87.096" r="2.667"/>
	</g>
	<g>
		<circle fill="#FFFFFF" cx="677.973" cy="15.179" r="2.667"/>
	</g>
	<g>
		<circle fill="#FFFFFF" cx="440.224" cy="477.048" r="2.667"/>
	</g>
	<g>
		<circle fill="#FFFFFF" cx="509.628" cy="499.936" r="2.667"/>
	</g>
	<g>
		<circle fill="#FFFFFF" cx="877.214" cy="11.146" r="2.667"/>
	</g>
	<g>
		<circle fill="#FFFFFF" cx="701.152" cy="228.384" r="2.667"/>
	</g>
	<g>
		<circle fill="#FFFFFF" cx="654.231" cy="504.262" r="2.667"/>
	</g>
	<g>
		<circle fill="#FFFFFF" cx="857.419" cy="307.017" r="2.667"/>
	</g>
	<g>
		<circle fill="#FFFFFF" cx="899.97" cy="229.083" r="2.667"/>
	</g>
	<g>
		<circle fill="#FFFFFF" cx="1052.182" cy="12.016" r="2.667"/>
	</g>
	<g>
		<circle fill="#FFFFFF" cx="1006.821" cy="111.5" r="2.667"/>
	</g>
	<g>
		<circle fill="#FFFFFF" cx="1063.773" cy="53.015" r="2.667"/>
	</g>
	<g>
		<circle fill="#FFFFFF" cx="938.958" cy="467.473" r="2.667"/>
	</g>
	<g>
		<circle fill="#FFFFFF" cx="1012.154" cy="471.295" r="2.667"/>
	</g>
	<g>
		<circle fill="#FFFFFF" cx="961.262" cy="375.224" r="2.667"/>
	</g>
	<g>
		<circle fill="#FFFFFF" cx="1117.773" cy="256.349" r="2.667"/>
	</g>
	<g>
		<circle fill="#FFFFFF" cx="1110.391" cy="458.484" r="2.667"/>
	</g>
	<g>
		<circle fill="#FFFFFF" cx="797.457" cy="541.197" r="2.667"/>
	</g>
</g>
</svg>
