<?xml version="1.0" encoding="utf-8"?>
<!-- Generator: Adobe Illustrator 16.0.0, SVG Export Plug-In . SVG Version: 6.00 Build 0)  -->
<!DOCTYPE svg PUBLIC "-//W3C//DTD SVG 1.1//EN" "http://www.w3.org/Graphics/SVG/1.1/DTD/svg11.dtd">
<svg version="1.1" id="Layer_1" xmlns="http://www.w3.org/2000/svg" xmlns:xlink="http://www.w3.org/1999/xlink" x="0px" y="0px"
	 width="1000px" height="1000px" viewBox="0 0 1000 1000" enable-background="new 0 0 1000 1000" xml:space="preserve">
<g>
	<path opacity="0.2" fill="#DDDDDD" d="M976.379,500c0-263.097-213.287-476.379-476.379-476.379
		C236.903,23.621,23.621,236.903,23.621,500c0,263.097,213.282,476.379,476.379,476.379
		C763.092,976.379,976.379,763.097,976.379,500z"/>
	<path opacity="0.2" fill="#DDDDDD" d="M896.982,500c0-219.248-177.739-396.982-396.982-396.982
		c-219.248,0-396.982,177.734-396.982,396.982S280.752,896.982,500,896.982C719.243,896.982,896.982,719.248,896.982,500z"/>
	<path opacity="0.3" fill="#DDDDDD" d="M817.586,500c0-175.398-142.191-317.586-317.586-317.586
		c-175.398,0-317.586,142.188-317.586,317.586c0,175.398,142.188,317.586,317.586,317.586
		C675.395,817.586,817.586,675.398,817.586,500z"/>
	<circle opacity="0.4" fill="#DDDDDD" cx="500" cy="500" r="238.189"/>
	<circle opacity="0.5" fill="#DDDDDD" cx="500" cy="500" r="158.793"/>
</g>
</svg>
