<?xml version="1.0" encoding="utf-8"?>
<!-- Generator: Adobe Illustrator 16.0.0, SVG Export Plug-In . SVG Version: 6.00 Build 0)  -->
<!DOCTYPE svg PUBLIC "-//W3C//DTD SVG 1.1//EN" "http://www.w3.org/Graphics/SVG/1.1/DTD/svg11.dtd">
<svg version="1.1" id="Layer_1" xmlns="http://www.w3.org/2000/svg" xmlns:xlink="http://www.w3.org/1999/xlink" x="0px" y="0px"
	 width="300px" height="300px" viewBox="0 0 300 300" enable-background="new 0 0 300 300" xml:space="preserve">
<path opacity="0.2" fill="#FFFFFF" d="M272.908,0H27.091C13.158,0,1.864,11.295,1.864,25.229c0,13.932,11.294,25.228,25.228,25.228
	h13.416c13.933,0,25.228,11.295,25.228,25.229c0,13.932-11.295,25.228-25.228,25.228h4.698c-13.933,0-25.228,11.294-25.228,25.228
	c0,13.932,11.295,25.227,25.228,25.227h7.116c13.933,0,25.228,11.296,25.228,25.228c0,13.935-11.294,25.229-25.228,25.229h1.94
	c-13.933,0-25.228,11.295-25.228,25.229c0,13.932,11.294,25.227,25.228,25.227h138.31c13.934,0,25.229-11.295,25.229-25.227
	c0-13.934-11.295-25.229-25.229-25.229c-13.932,0-25.229-11.295-25.229-25.229c0-13.932,11.297-25.228,25.229-25.228h44.959
	c13.935,0,25.228-11.295,25.228-25.227c0-13.934-11.293-25.228-25.228-25.228h-2.863c-13.934,0-25.229-11.295-25.229-25.228
	c0-13.933,11.295-25.229,25.229-25.229h38.242c13.934,0,25.229-11.295,25.229-25.228C298.137,11.295,286.842,0,272.908,0z"/>
</svg>
